<svg width="18" height="18" viewBox="0 0 18 18" fill="none" xmlns="http://www.w3.org/2000/svg">
<rect x="1" y="1" width="16" height="16" rx="8" fill="#FCB145"/>
<rect x="1" y="1" width="16" height="16" rx="8" stroke="white" stroke-opacity="0.64" stroke-width="1.5"/>
<path d="M8.99994 5.16663C9.09979 5.16665 9.19735 5.19657 9.28005 5.25253C9.36274 5.3085 9.42679 5.38794 9.46394 5.48063C9.69994 6.07129 9.9926 6.44396 10.2906 6.67929C10.5866 6.91463 10.9119 7.03263 11.2439 7.07529C11.9286 7.16396 12.6313 6.93396 13.0653 6.74263L13.0766 6.73796C13.1386 6.71063 13.2079 6.67996 13.2673 6.65796H13.2706C13.3875 6.61332 13.5145 6.60246 13.6373 6.62663C13.7254 6.64619 13.8082 6.68455 13.8801 6.73909C13.9521 6.79363 14.0113 6.86306 14.0539 6.94263C14.1366 7.09596 14.1273 7.25063 14.1239 7.30129V7.30263C14.1193 7.36529 14.1086 7.43863 14.0999 7.50196C13.9253 8.72396 13.7479 9.94529 13.5766 11.1673C13.4899 11.7806 13.1639 12.1626 12.5539 12.3393C10.2304 12.9979 7.76951 12.9979 5.44594 12.3393C4.83594 12.1626 4.50927 11.7806 4.42327 11.1673C4.25194 9.94529 4.0746 8.72396 3.89994 7.50196C3.88944 7.43584 3.88143 7.36935 3.87594 7.30263V7.30129C3.86541 7.17755 3.88965 7.05333 3.94594 6.94263C3.98853 6.86306 4.04782 6.79363 4.11973 6.73909C4.19165 6.68455 4.27449 6.64619 4.3626 6.62663C4.48528 6.60225 4.61234 6.61288 4.72927 6.65729L4.73194 6.65863C4.79194 6.67996 4.86127 6.71063 4.92327 6.73796L4.9346 6.74263C5.36794 6.93396 6.0706 7.16396 6.7546 7.07596C7.1036 7.03464 7.4343 6.89732 7.70994 6.67929C8.0066 6.44396 8.29927 6.07129 8.53594 5.48063C8.57308 5.38794 8.63713 5.3085 8.71983 5.25253C8.80252 5.19657 8.90008 5.16665 8.99994 5.16663Z" fill="white" fill-opacity="0.64"/>
</svg>
