<svg width="14" height="14" viewBox="0 0 14 14" fill="none" xmlns="http://www.w3.org/2000/svg">
<path fill-rule="evenodd" clip-rule="evenodd" d="M6.99615 0.333332C10.6758 0.333332 13.6667 3.32561 13.6667 7C13.6667 10.6744 10.6758 13.6667 6.99615 13.6667C3.32417 13.6667 0.333337 10.6744 0.333337 7C0.333338 3.32561 3.32417 0.333332 6.99615 0.333332ZM6.32144 9.4453C6.39219 9.51609 6.50153 9.60618 6.52726 9.62548C6.66233 9.72844 6.82956 9.77992 6.99615 9.77992C7.18331 9.77992 7.35698 9.72201 7.49848 9.61261C7.50744 9.60365 7.52654 9.58609 7.55144 9.56322C7.59803 9.52041 7.66491 9.45897 7.72359 9.40026C8.2896 8.87259 9.2158 7.49549 9.4988 6.77477C9.54318 6.66538 9.6403 6.38867 9.64673 6.24067C9.64673 6.0991 9.61457 5.96396 9.55025 5.83526C9.46021 5.67439 9.31871 5.54569 9.15148 5.4749C9.0357 5.42986 8.68838 5.35907 8.68195 5.35907C8.30247 5.28829 7.685 5.24968 7.00322 5.24968C6.35296 5.24968 5.76186 5.28829 5.37595 5.3462C5.37436 5.3478 5.34676 5.35333 5.30388 5.36193C5.17353 5.38807 4.90196 5.44254 4.79065 5.50064C4.52051 5.64221 4.35328 5.91892 4.35328 6.21493L4.35328 6.24067C4.35971 6.43372 4.52694 6.83912 4.53337 6.83912C4.81637 7.52123 5.69755 8.86615 6.28285 9.40669L6.32144 9.4453Z" fill="white"/>
</svg>
