<svg width="16" height="16" viewBox="0 0 16 16" fill="none" xmlns="http://www.w3.org/2000/svg">
<path d="M14.6667 7.71133C14.6667 11.2333 11.6813 14.0887 8.00001 14.0887C7.56579 14.0891 7.13579 14.0496 6.71001 13.97C6.40401 13.912 6.25134 13.8833 6.14468 13.9C6.03801 13.916 5.88601 13.9967 5.58334 14.1573C4.72091 14.6166 3.72855 14.771 2.76734 14.5953C3.13451 14.1414 3.38348 13.6036 3.49201 13.03C3.55868 12.6767 3.39334 12.3333 3.14534 12.082C2.02268 10.9407 1.33334 9.40333 1.33334 7.71133C1.33334 4.18933 4.31868 1.33333 8.00001 1.33333C11.6813 1.33333 14.6667 4.18933 14.6667 7.71133Z" stroke="white" stroke-width="1.25" stroke-linecap="round" stroke-linejoin="round"/>
<path d="M6.66669 6.564C6.66669 5.884 7.26335 5.33333 8.00002 5.33333C8.73669 5.33333 9.33335 5.88467 9.33335 6.564C9.33335 6.80933 9.25602 7.03733 9.12202 7.22933C8.72335 7.8 8.00002 8.346 8.00002 9.026V9.33333M8.00002 11H8.00602" stroke="white" stroke-width="1.25" stroke-linecap="round" stroke-linejoin="round"/>
</svg>
