<svg width="16" height="16" viewBox="0 0 16 16" fill="none" xmlns="http://www.w3.org/2000/svg">
<path fill-rule="evenodd" clip-rule="evenodd" d="M10.0639 2.06389C10.489 1.6388 11.0655 1.39999 11.6667 1.39999C12.2678 1.39999 12.8444 1.6388 13.2695 2.06389C13.6945 2.48897 13.9333 3.0655 13.9333 3.66666C13.9333 4.26782 13.6945 4.84435 13.2695 5.26944C12.8444 5.69452 12.2678 5.93333 11.6667 5.93333C11.0655 5.93333 10.489 5.69452 10.0639 5.26944C10.047 5.25253 10.0304 5.23538 10.0141 5.218L6.50331 7.34498C6.56688 7.55553 6.60001 7.77605 6.60001 7.99999C6.60001 8.20297 6.57279 8.40314 6.52036 8.59562L10.0899 10.705C10.5123 10.2959 11.0777 10.0667 11.6667 10.0667C12.2678 10.0667 12.8444 10.3055 13.2695 10.7306C13.6945 11.1556 13.9333 11.7322 13.9333 12.3333C13.9333 12.9345 13.6945 13.511 13.2695 13.9361C12.8444 14.3612 12.2678 14.6 11.6667 14.6C11.0655 14.6 10.489 14.3612 10.0639 13.9361C9.63882 13.511 9.40001 12.9345 9.40001 12.3333C9.40001 12.1305 9.4272 11.9305 9.47955 11.7381L5.90979 9.62867C5.48739 10.0375 4.92218 10.2667 4.33335 10.2667C3.73219 10.2667 3.15565 10.0279 2.73057 9.60277C2.30549 9.17769 2.06668 8.60115 2.06668 7.99999C2.06668 7.39884 2.30549 6.8223 2.73057 6.39722C3.15565 5.97214 3.73219 5.73333 4.33335 5.73333C4.90147 5.73333 5.4476 5.94661 5.86469 6.32883L9.45318 4.15476C9.4181 3.99569 9.40001 3.83211 9.40001 3.66666C9.40001 3.0655 9.63882 2.48897 10.0639 2.06389ZM11.6667 2.59999C11.3838 2.59999 11.1125 2.71237 10.9124 2.91241C10.7124 3.11245 10.6 3.38376 10.6 3.66666C10.6 3.94956 10.7124 4.22087 10.9124 4.42091C11.1125 4.62095 11.3838 4.73333 11.6667 4.73333C11.9496 4.73333 12.2209 4.62095 12.4209 4.42091C12.621 4.22087 12.7333 3.94956 12.7333 3.66666C12.7333 3.38376 12.621 3.11245 12.4209 2.91241C12.2209 2.71237 11.9496 2.59999 11.6667 2.59999ZM4.33335 6.93333C4.05045 6.93333 3.77914 7.04571 3.5791 7.24575C3.37906 7.44579 3.26668 7.7171 3.26668 7.99999C3.26668 8.28289 3.37906 8.5542 3.5791 8.75424C3.77914 8.95428 4.05045 9.06666 4.33335 9.06666C4.61624 9.06666 4.88756 8.95428 5.08759 8.75424C5.28763 8.5542 5.40001 8.28289 5.40001 7.99999C5.40001 7.7171 5.28763 7.44579 5.08759 7.24575C4.88756 7.04571 4.61624 6.93333 4.33335 6.93333ZM11.6667 11.2667C11.3838 11.2667 11.1125 11.379 10.9124 11.5791C10.7124 11.7791 10.6 12.0504 10.6 12.3333C10.6 12.6162 10.7124 12.8875 10.9124 13.0876C11.1125 13.2876 11.3838 13.4 11.6667 13.4C11.9496 13.4 12.2209 13.2876 12.4209 13.0876C12.621 12.8875 12.7333 12.6162 12.7333 12.3333C12.7333 12.0504 12.621 11.7791 12.4209 11.5791C12.2209 11.379 11.9496 11.2667 11.6667 11.2667Z" fill="white"/>
</svg>
